<?xml version="1.0" standalone="no"?>
<!DOCTYPE svg PUBLIC "-//W3C//DTD SVG 20010904//EN"
 "http://www.w3.org/TR/2001/REC-SVG-20010904/DTD/svg10.dtd">
<svg version="1.0" xmlns="http://www.w3.org/2000/svg"
 width="860.000000pt" height="899.000000pt" viewBox="0 0 860.000000 899.000000"
 preserveAspectRatio="xMidYMid meet">
<metadata>
Created by potrace 1.16, written by Peter Selinger 2001-2019
</metadata>
<g transform="translate(0.000000,899.000000) scale(0.100000,-0.100000)"
fill="#000000" stroke="none">
<path d="M3585 8029 c-390 -259 -1272 -842 -1960 -1296 -687 -454 -1256 -831
-1263 -837 -9 -9 -12 -110 -10 -463 l3 -451 258 169 c246 161 260 169 307 169
l50 0 2 -2227 3 -2228 27 -50 c34 -65 101 -127 164 -151 48 -19 124 -19 3144
-19 l3095 0 50 25 c59 29 116 84 147 142 l23 43 3 2228 2 2227 60 0 59 0 251
-165 250 -164 0 457 -1 457 -342 225 c-188 124 -819 540 -1402 926 -1947 1287
-2188 1446 -2199 1449 -6 2 -330 -208 -721 -466z m2077 -1335 c722 -476 1346
-887 1385 -913 l73 -46 0 -2287 0 -2288 -2820 0 -2820 0 2 2287 3 2286 1384
914 c1353 892 1386 913 1433 913 47 0 79 -20 1360 -866z"/>
<path d="M3345 4810 c-148 -20 -302 -80 -419 -164 -87 -62 -202 -188 -259
-284 -51 -84 -99 -210 -115 -299 l-9 -52 46 6 c83 10 244 -14 339 -50 182 -68
336 -205 417 -371 59 -119 76 -187 82 -326 2 -63 9 -127 15 -143 l10 -27 861
2 861 3 12 45 c6 25 16 98 22 162 19 211 95 374 237 506 85 79 174 128 310
167 76 22 112 27 227 28 l136 2 -5 30 c-22 124 -78 265 -144 362 -47 69 -164
188 -236 239 -81 58 -210 118 -314 146 -84 22 -86 22 -1049 24 -531 1 -992 -2
-1025 -6z"/>
<path d="M2525 3593 c-77 -28 -135 -66 -191 -125 -65 -68 -99 -128 -119 -206
-15 -56 -15 -68 -1 -122 35 -134 112 -232 231 -291 l65 -32 0 -87 c0 -226 81
-427 236 -590 l74 -77 0 -182 c0 -202 3 -215 64 -269 47 -41 91 -52 212 -52
88 0 106 3 153 26 79 40 104 84 109 195 l4 89 942 -2 941 -3 5 -90 c6 -99 13
-118 64 -163 47 -41 91 -52 211 -52 115 0 164 17 208 69 l27 33 0 194 0 195
66 61 c167 157 255 352 270 601 l7 112 54 24 c110 49 193 149 229 277 21 78
14 129 -30 220 -41 85 -89 141 -161 188 -128 85 -224 94 -350 32 -164 -81
-265 -251 -265 -446 0 -187 -74 -345 -188 -401 l-47 -24 -1040 0 -1040 0 -57
28 c-66 32 -119 96 -148 179 -21 60 -40 184 -40 261 0 164 -105 324 -262 402
-92 45 -162 53 -233 28z"/>
</g>
</svg>
